<?xml version="1.0" standalone="no"?>
<!DOCTYPE svg PUBLIC "-//W3C//DTD SVG 20010904//EN"
 "http://www.w3.org/TR/2001/REC-SVG-20010904/DTD/svg10.dtd">
<svg version="1.0" xmlns="http://www.w3.org/2000/svg"
 width="6319.000000pt" height="3947.000000pt" viewBox="0 0 6319.000000 3947.000000"
 preserveAspectRatio="xMidYMid meet">
<metadata>
Created by potrace 1.16, written by Peter Selinger 2001-2019
</metadata>
<g transform="translate(0.000000,3947.000000) scale(0.100000,-0.100000)"
fill="#6e2d9f">
<path d="M19065 39323 c-3677 -93 -7249 -1223 -10330 -3269 -2280 -1513 -4219
-3495 -5682 -5804 -758 -1198 -1343 -2370 -1816 -3640 -557 -1494 -938 -3113
-1111 -4720 -89 -818 -122 -1521 -113 -2370 7 -679 33 -1169 92 -1760 280
-2778 1093 -5325 2473 -7745 1384 -2427 3246 -4506 5497 -6137 2706 -1961
5890 -3200 9230 -3593 1670 -196 3429 -170 5080 76 2690 399 5237 1354 7550
2829 2594 1654 4773 3945 6307 6630 152 266 289 522 285 533 -1 5 -29 -35 -62
-89 -200 -338 -568 -898 -835 -1272 -1222 -1714 -2721 -3232 -4410 -4464
-1316 -959 -2733 -1739 -4258 -2342 -1852 -733 -3802 -1173 -5757 -1300 -796
-52 -1664 -52 -2460 0 -4090 266 -8055 1884 -11165 4556 -682 586 -1351 1247
-1915 1893 -1237 1415 -2236 2971 -2990 4655 -873 1950 -1417 4059 -1594 6185
-49 583 -55 755 -56 1540 0 856 13 1161 80 1845 259 2629 1071 5181 2383 7485
1560 2740 3773 5041 6452 6707 883 549 1923 1080 2875 1465 1766 717 3621
1155 5555 1313 857 70 1886 79 2750 25 2533 -160 4984 -807 7243 -1913 152
-74 276 -138 275 -141 -2 -3 -34 -66 -71 -140 -241 -473 -350 -960 -334 -1496
9 -299 47 -538 127 -804 288 -951 1012 -1709 1946 -2034 869 -302 1836 -204
2619 266 205 123 399 273 581 449 l101 98 157 -161 c975 -1004 1931 -2257
2688 -3524 208 -349 468 -815 588 -1055 59 -119 112 -212 116 -207 3 2 -29 78
-70 168 -806 1779 -1868 3407 -3184 4877 l-110 124 57 79 c315 440 510 951
566 1481 17 171 20 463 4 628 -55 591 -276 1144 -651 1628 -102 132 -358 390
-493 497 -295 236 -674 438 -1020 544 -754 231 -1564 171 -2270 -168 -379
-182 -702 -429 -1006 -768 l-64 -71 -220 119 c-936 508 -2012 970 -3095 1327
-2079 686 -4345 1021 -6535 965z"/>
<path d="M6430 19915 l0 -7295 2895 0 2895 0 0 750 0 750 -2145 0 -2145 0 0
2530 0 2530 2145 0 2145 0 0 745 0 745 -2145 0 -2145 0 0 2520 0 2520 2145 0
2145 0 0 750 0 750 -2895 0 -2895 0 0 -7295z"/>
<path d="M13450 19915 l0 -7296 1563 4 c1378 3 1580 5 1717 20 1066 116 1811
511 2362 1254 425 573 665 1358 728 2383 14 229 14 7039 0 7273 -75 1237 -405
2112 -1036 2743 -462 461 -1060 746 -1819 864 -283 44 -262 43 -1927 47
l-1588 4 0 -7296z m3273 5767 c660 -107 1046 -371 1292 -884 149 -313 236
-687 287 -1238 16 -174 24 -6675 9 -7045 -18 -421 -56 -717 -131 -1010 -100
-390 -241 -671 -446 -884 -248 -259 -572 -404 -1064 -477 -99 -15 -225 -18
-917 -21 l-803 -4 0 5796 0 5796 818 -4 c787 -3 822 -4 955 -25z"/>
<path d="M24145 27200 c-842 -73 -1471 -336 -1979 -829 -650 -632 -985 -1566
-1036 -2891 -13 -342 -13 -6758 0 -7100 44 -1134 296 -1985 779 -2630 93 -124
310 -350 431 -447 544 -437 1186 -652 2025 -679 747 -24 1431 138 1955 462
240 148 517 394 692 614 498 627 762 1425 828 2500 6 99 10 803 10 1758 l0
1592 -2245 0 -2245 0 0 -755 0 -755 1490 0 1490 0 0 -717 c0 -395 -5 -812 -10
-928 -33 -723 -170 -1248 -425 -1631 -293 -440 -740 -643 -1416 -644 -446 0
-788 85 -1066 265 -111 72 -277 238 -359 360 -228 336 -350 732 -421 1367 -16
141 -17 436 -21 3688 -2 2453 0 3596 8 3735 32 596 119 974 310 1351 161 318
376 541 642 667 200 95 560 157 908 157 207 0 300 -9 510 -46 248 -45 400
-104 563 -221 201 -145 344 -329 483 -618 227 -476 294 -923 294 -1987 l0
-418 756 0 756 0 -5 638 c-6 781 -23 995 -117 1462 -154 764 -444 1347 -904
1819 -469 480 -1072 757 -1846 847 -158 18 -683 27 -835 14z"/>
<path d="M29100 19915 l0 -7295 2895 0 2895 0 0 750 0 750 -2145 0 -2145 0 0
2530 0 2530 2145 0 2145 0 0 745 0 745 -2145 0 -2145 0 0 2520 0 2520 2145 0
2145 0 0 750 0 750 -2895 0 -2895 0 0 -7295z"/>
<path d="M36830 19850 l0 -7170 2745 0 2745 0 0 345 0 345 -2410 0 -2410 0 0
6825 0 6825 -335 0 -335 0 0 -7170z"/>
<path d="M43480 19840 l0 -7160 2575 0 2575 0 0 335 0 335 -2240 0 -2240 0 0
3080 0 3080 2240 0 2240 0 0 335 0 335 -2240 0 -2240 0 0 3075 0 3075 2240 0
2240 0 0 335 0 335 -2575 0 -2575 0 0 -7160z"/>
<path d="M52745 26993 c-327 -9 -680 -74 -961 -178 -157 -58 -388 -176 -534
-273 -764 -509 -1270 -1425 -1414 -2562 -36 -278 -41 -382 -41 -785 0 -430 4
-494 51 -763 104 -608 348 -1137 742 -1607 99 -118 379 -395 525 -519 153
-131 334 -261 487 -353 129 -77 499 -262 700 -351 63 -28 187 -83 275 -122 88
-40 246 -110 350 -157 345 -154 741 -355 885 -450 490 -324 827 -686 1099
-1181 195 -354 295 -734 326 -1242 7 -112 -7 -363 -31 -575 -92 -813 -372
-1470 -819 -1920 -229 -232 -482 -390 -779 -489 -423 -140 -982 -152 -1476
-30 -1019 251 -1558 1081 -1660 2554 -5 80 -10 297 -10 483 l0 337 -336 0
-336 0 5 -442 c5 -454 16 -629 58 -923 93 -659 286 -1205 567 -1610 471 -678
1097 -1031 2005 -1132 214 -23 643 -23 832 1 638 79 1150 314 1571 718 613
590 986 1456 1064 2473 6 77 16 199 22 270 6 72 13 212 15 313 3 155 2 182
-11 182 -11 0 -16 18 -21 68 -31 318 -103 643 -200 909 -82 223 -255 535 -442
800 -218 309 -492 589 -822 842 -352 269 -695 451 -1496 793 -864 368 -1241
601 -1644 1013 -164 168 -283 320 -408 523 -314 509 -423 922 -423 1613 0 551
65 990 210 1419 198 587 546 1065 985 1353 338 221 730 328 1205 328 414 0
731 -57 1041 -188 771 -327 1201 -1093 1314 -2343 9 -100 19 -339 22 -557 l6
-383 343 0 344 0 0 288 c0 1186 -194 2028 -617 2677 -425 652 -1089 1045
-1942 1150 -159 19 -460 33 -626 28z"/>
<path d="M60000 26993 c-518 -14 -1035 -162 -1425 -408 -583 -367 -1040 -984
-1286 -1739 -108 -330 -175 -670 -221 -1126 -21 -203 -17 -889 5 -1070 76
-611 266 -1119 590 -1582 146 -208 303 -385 535 -601 254 -237 467 -401 701
-537 114 -66 507 -259 691 -340 91 -40 257 -114 370 -165 113 -51 282 -128
375 -170 246 -112 584 -284 703 -359 229 -144 512 -380 683 -568 255 -280 499
-676 608 -983 115 -324 183 -773 167 -1100 -48 -975 -323 -1735 -821 -2263
-322 -341 -752 -554 -1240 -611 -239 -28 -542 -22 -788 14 -955 144 -1533 705
-1787 1737 -99 401 -140 803 -140 1370 l0 318 -335 0 -335 0 0 -332 c0 -343 9
-553 36 -813 96 -952 382 -1658 884 -2189 284 -299 681 -534 1115 -659 460
-133 1064 -171 1551 -97 605 92 1108 349 1525 776 535 550 870 1316 974 2229
43 382 68 935 42 935 -10 0 -17 30 -26 118 -35 328 -119 678 -228 942 -81 197
-230 462 -381 679 -251 361 -607 714 -997 988 -286 202 -662 392 -1360 690
-321 136 -685 310 -875 418 -257 145 -496 329 -726 559 -211 211 -350 394
-501 656 -195 339 -282 600 -339 1010 -21 159 -30 629 -15 845 56 794 258
1403 633 1903 85 113 271 309 375 394 307 250 680 402 1103 448 133 15 451 15
600 0 550 -55 968 -238 1300 -570 179 -179 306 -366 421 -620 232 -513 339
-1142 339 -1992 l0 -278 346 0 347 0 -6 418 c-7 523 -33 826 -103 1202 -256
1373 -1005 2213 -2184 2450 -269 54 -602 81 -900 73z"/>
</g>
</svg>
